<?xml version="1.0" encoding="UTF-8"?>
<svg xmlns="http://www.w3.org/2000/svg" xmlns:xlink="http://www.w3.org/1999/xlink" width="375pt" height="374.999991pt" viewBox="0 0 375 374.999991" version="1.2">
<defs>
<clipPath id="clip1">
  <path d="M 163 136.6875 L 212 136.6875 L 212 184 L 163 184 Z M 163 136.6875 "/>
</clipPath>
<clipPath id="clip2">
  <path d="M 112.5 169 L 262.5 169 L 262.5 238.6875 L 112.5 238.6875 Z M 112.5 169 "/>
</clipPath>
</defs>
<g id="surface1">
<g clip-path="url(#clip1)" clip-rule="nonzero">
<path style=" stroke:none;fill-rule:nonzero;fill:rgb(94.898987%,10.5896%,17.649841%);fill-opacity:1;" d="M 180.675781 153.988281 C 181.136719 153.917969 181.535156 153.628906 181.746094 153.207031 L 187.5 141.503906 L 193.253906 153.207031 C 193.460938 153.628906 193.863281 153.917969 194.324219 153.988281 L 207.195312 155.863281 L 197.878906 164.976562 C 197.546875 165.304688 197.394531 165.773438 197.472656 166.234375 L 199.671875 179.101562 L 188.160156 173.027344 C 187.746094 172.808594 187.253906 172.808594 186.839844 173.027344 L 175.328125 179.101562 L 177.527344 166.234375 C 177.605469 165.773438 177.453125 165.304688 177.121094 164.976562 L 167.804688 155.863281 Z M 174.605469 166.492188 L 172.046875 181.460938 C 171.957031 181.996094 172.175781 182.535156 172.613281 182.855469 C 173.050781 183.171875 173.628906 183.214844 174.105469 182.964844 L 187.5 175.894531 L 200.894531 182.964844 C 201.101562 183.074219 201.328125 183.125 201.554688 183.125 C 201.847656 183.125 202.140625 183.035156 202.386719 182.855469 C 202.824219 182.535156 203.042969 181.996094 202.953125 181.460938 L 200.394531 166.492188 L 211.230469 155.890625 C 211.617188 155.511719 211.757812 154.945312 211.589844 154.429688 C 211.421875 153.917969 210.976562 153.539062 210.445312 153.460938 L 195.46875 151.277344 L 188.769531 137.660156 C 188.292969 136.6875 186.707031 136.6875 186.230469 137.660156 L 179.53125 151.277344 L 164.554688 153.460938 C 164.023438 153.539062 163.578125 153.917969 163.410156 154.429688 C 163.242188 154.945312 163.382812 155.511719 163.769531 155.890625 L 174.605469 166.492188 "/>
</g>
<g clip-path="url(#clip2)" clip-rule="nonzero">
<path style=" stroke:none;fill-rule:nonzero;fill:rgb(94.898987%,10.5896%,17.649841%);fill-opacity:1;" d="M 237.453125 204.128906 L 216.738281 204.128906 C 216.175781 204.128906 215.632812 204.367188 215.253906 204.785156 L 187.5 235.429688 L 159.75 204.789062 C 159.367188 204.367188 158.828125 204.128906 158.261719 204.128906 L 137.546875 204.128906 L 131.605469 195.132812 L 146.101562 195.132812 C 146.886719 195.132812 147.519531 194.496094 147.519531 193.707031 C 147.519531 192.921875 146.886719 192.285156 146.101562 192.285156 L 129.722656 192.285156 L 124.464844 184.328125 L 138.859375 184.328125 C 139.640625 184.328125 140.273438 183.691406 140.273438 182.90625 C 140.273438 182.117188 139.640625 181.480469 138.859375 181.480469 L 122.582031 181.480469 L 116.226562 171.863281 L 153.15625 171.863281 L 179.535156 207.234375 C 179.824219 207.621094 180.300781 207.839844 180.773438 207.800781 C 181.253906 207.765625 181.6875 207.484375 181.914062 207.058594 L 187.5 196.699219 L 193.082031 207.058594 C 193.3125 207.484375 193.742188 207.765625 194.226562 207.800781 C 194.703125 207.835938 195.175781 207.621094 195.464844 207.234375 L 221.84375 171.863281 L 258.773438 171.863281 L 252.417969 181.480469 L 236.554688 181.480469 C 235.773438 181.480469 235.140625 182.117188 235.140625 182.90625 C 235.140625 183.691406 235.773438 184.328125 236.554688 184.328125 L 250.535156 184.328125 L 245.277344 192.285156 L 229.3125 192.285156 C 228.527344 192.285156 227.894531 192.921875 227.894531 193.707031 C 227.894531 194.496094 228.527344 195.132812 229.3125 195.132812 L 243.394531 195.132812 Z M 261.984375 172.148438 C 262.398438 171.527344 262.433594 170.738281 262.085938 170.082031 C 261.734375 169.425781 261.054688 169.015625 260.3125 169.015625 L 221.136719 169.015625 C 220.691406 169.015625 220.269531 169.230469 220 169.585938 L 194.523438 203.746094 L 188.746094 193.03125 C 188.25 192.109375 186.75 192.109375 186.253906 193.03125 L 180.476562 203.746094 L 155 169.585938 C 154.730469 169.230469 154.308594 169.015625 153.863281 169.015625 L 114.683594 169.015625 C 113.945312 169.015625 113.265625 169.425781 112.917969 170.078125 C 112.566406 170.734375 112.601562 171.527344 113.011719 172.148438 L 120.644531 183.691406 C 120.644531 183.699219 120.648438 183.703125 120.648438 183.707031 L 127.578125 194.1875 C 127.65625 194.40625 127.785156 194.597656 127.949219 194.753906 L 135.433594 206.074219 C 135.804688 206.632812 136.429688 206.972656 137.105469 206.972656 L 157.894531 206.972656 L 186.011719 238.019531 C 186.394531 238.4375 186.933594 238.675781 187.5 238.675781 C 188.0625 238.675781 188.605469 238.4375 188.984375 238.019531 L 217.105469 206.972656 L 237.894531 206.972656 C 238.570312 206.972656 239.195312 206.632812 239.570312 206.070312 L 254.351562 183.707031 C 254.351562 183.703125 254.355469 183.699219 254.355469 183.691406 L 261.984375 172.148438 "/>
</g>
</g>
</svg>
