<?xml version="1.0" encoding="UTF-8"?>
<svg xmlns="http://www.w3.org/2000/svg" xmlns:xlink="http://www.w3.org/1999/xlink" width="375pt" height="374.999991pt" viewBox="0 0 375 374.999991" version="1.2">
<defs>
<clipPath id="clip1">
  <path d="M 112.5 112.5 L 262.5 112.5 L 262.5 262.5 L 112.5 262.5 Z M 112.5 112.5 "/>
</clipPath>
</defs>
<g id="surface1">
<g clip-path="url(#clip1)" clip-rule="nonzero">
<path style=" stroke:none;fill-rule:evenodd;fill:rgb(94.898987%,10.5896%,17.649841%);fill-opacity:1;" d="M 262.5 187.5 C 262.5 228.90625 228.90625 262.5 187.5 262.5 C 146.09375 262.5 112.5 228.90625 112.5 187.5 C 112.5 146.09375 146.09375 112.5 187.5 112.5 C 228.90625 112.5 262.5 146.09375 262.5 187.5 Z M 262.5 187.5 "/>
</g>
<path style=" stroke:none;fill-rule:evenodd;fill:rgb(100%,100%,100%);fill-opacity:1;" d="M 132.527344 214.808594 C 142.578125 234.980469 163.421875 248.863281 187.5 248.863281 C 211.613281 248.863281 232.457031 234.980469 242.507812 214.773438 C 243.574219 212.570312 221.378906 194.316406 187.5 194.316406 C 153.621094 194.316406 131.425781 212.570312 132.527344 214.808594 Z M 132.527344 214.808594 "/>
<path style=" stroke:none;fill-rule:evenodd;fill:rgb(100%,100%,100%);fill-opacity:1;" d="M 214.773438 153.410156 C 214.773438 168.464844 202.558594 180.683594 187.5 180.683594 C 172.441406 180.683594 160.226562 168.464844 160.226562 153.410156 C 160.226562 138.351562 172.441406 126.136719 187.5 126.136719 C 202.558594 126.136719 214.773438 138.351562 214.773438 153.410156 Z M 214.773438 153.410156 "/>
</g>
</svg>
